<svg width="6" height="5" viewBox="0 0 6 5" fill="none" xmlns="http://www.w3.org/2000/svg">
<path d="M5.30531 0.0749931C5.40174 0.0754361 5.4941 0.113941 5.56229 0.182131C5.63048 0.250321 5.66898 0.342679 5.66943 0.439113L5.66943 3.87421C5.67115 3.9231 5.66301 3.97185 5.64549 4.01753C5.62797 4.06322 5.60142 4.1049 5.56744 4.14011C5.53346 4.17531 5.49274 4.20331 5.4477 4.22243C5.40266 4.24155 5.35423 4.2514 5.30531 4.25141C5.25638 4.25141 5.20795 4.24155 5.16291 4.22243C5.11788 4.20331 5.07715 4.17531 5.04317 4.14011C5.00919 4.1049 4.98264 4.06322 4.96512 4.01753C4.9476 3.97185 4.93946 3.9231 4.94119 3.87421L4.94119 1.3185L1.44083 4.81886C1.3725 4.88718 1.27982 4.92557 1.18319 4.92557C1.08656 4.92557 0.993891 4.88718 0.925562 4.81886C0.857234 4.75053 0.818848 4.65786 0.818848 4.56122C0.818848 4.46459 0.857234 4.37192 0.925563 4.30359L4.42592 0.803233L1.87021 0.803233C1.77587 0.799903 1.6865 0.760082 1.62093 0.69216C1.55536 0.624238 1.51872 0.533518 1.51872 0.439113C1.51872 0.344708 1.55536 0.253988 1.62093 0.186066C1.6865 0.118144 1.77587 0.0783236 1.87021 0.0749933L5.30531 0.0749931Z" fill="white"/>
</svg>
