<svg width="6" height="5" viewBox="0 0 6 5" fill="none" xmlns="http://www.w3.org/2000/svg">
<path d="M4.79374 0.0749931C4.89018 0.0754361 4.98253 0.113941 5.05072 0.182131C5.11891 0.250321 5.15742 0.342679 5.15786 0.439113L5.15786 3.87421C5.15959 3.9231 5.15145 3.97185 5.13393 4.01753C5.1164 4.06322 5.08986 4.1049 5.05588 4.14011C5.0219 4.17531 4.98117 4.20331 4.93614 4.22243C4.8911 4.24155 4.84267 4.2514 4.79374 4.25141C4.74481 4.25141 4.69639 4.24155 4.65135 4.22243C4.60631 4.20331 4.56559 4.17531 4.53161 4.14011C4.49762 4.1049 4.47108 4.06322 4.45356 4.01753C4.43604 3.97185 4.4279 3.9231 4.42962 3.87421L4.42962 1.3185L0.929263 4.81886C0.860934 4.88718 0.768261 4.92557 0.67163 4.92557C0.575 4.92557 0.482327 4.88718 0.413999 4.81886C0.34567 4.75053 0.307284 4.65786 0.307284 4.56122C0.307284 4.46459 0.34567 4.37192 0.413999 4.30359L3.91436 0.803233L1.35865 0.803233C1.2643 0.799903 1.17493 0.760082 1.10937 0.69216C1.0438 0.624238 1.00716 0.533518 1.00716 0.439113C1.00716 0.344708 1.0438 0.253988 1.10937 0.186066C1.17493 0.118144 1.2643 0.0783236 1.35865 0.0749933L4.79374 0.0749931Z" fill="#1F253F"/>
</svg>
